<?xml version="1.0" standalone="no"?><!DOCTYPE svg PUBLIC "-//W3C//DTD SVG 1.1//EN" "http://www.w3.org/Graphics/SVG/1.1/DTD/svg11.dtd"><svg t="1631062651365" class="icon" viewBox="0 0 1024 1024" version="1.1" xmlns="http://www.w3.org/2000/svg" p-id="3783" xmlns:xlink="http://www.w3.org/1999/xlink" width="200" height="200"><defs><style type="text/css"></style></defs><path d="M640 128a42.666667 42.666667 0 0 1 42.666667 42.666667v170.666666a42.666667 42.666667 0 0 1-42.666667 42.666667h-85.333333v85.333333h170.666666a42.666667 42.666667 0 0 1 42.666667 42.666667v128h85.333333a42.666667 42.666667 0 0 1 42.666667 42.666667v170.666666a42.666667 42.666667 0 0 1-42.666667 42.666667h-256a42.666667 42.666667 0 0 1-42.666666-42.666667v-170.666666a42.666667 42.666667 0 0 1 42.666666-42.666667h85.333334v-85.333333H341.333333v85.333333h85.333334a42.666667 42.666667 0 0 1 42.666666 42.666667v170.666666a42.666667 42.666667 0 0 1-42.666666 42.666667H170.666667a42.666667 42.666667 0 0 1-42.666667-42.666667v-170.666666a42.666667 42.666667 0 0 1 42.666667-42.666667h85.333333v-128a42.666667 42.666667 0 0 1 42.666667-42.666667h170.666666V384H384a42.666667 42.666667 0 0 1-42.666667-42.666667V170.666667a42.666667 42.666667 0 0 1 42.666667-42.666667h256zM384 725.333333H213.333333v85.333334h170.666667v-85.333334z m426.666667 0h-170.666667v85.333334h170.666667v-85.333334zM597.333333 213.333333h-170.666666v85.333334h170.666666V213.333333z" p-id="3784"></path></svg>